<svg width="614.5437499999999px" height="117.2px" xmlns="http://www.w3.org/2000/svg" viewBox="-57.271874999999966 16.4 614.5437499999999 117.2" style="background: rgba(0, 0, 0, 0);" preserveAspectRatio="xMidYMid"><defs><linearGradient id="editing-gradient-gradient" x1="0" x2="1" y1="0.5" y2="0.5" gradientUnits="objectBoundingBox"><stop offset="0" stop-color="#f0f"></stop><stop offset="1" stop-color="#0ff"></stop></linearGradient></defs><g><g transform="translate(27.279980897903442, 107.22000122070312)"><path d="M42.75-24.96L42.75-24.96Q43.84-24.96 44.54-24.29L44.54-24.29L44.54-24.29Q45.25-23.62 45.25-22.53L45.25-22.53L45.25-6.66L45.25-6.66Q45.25-5.57 44.54-4.86L44.54-4.86L44.54-4.86Q38.59 0.64 28.86 0.64L28.86 0.64L28.86 0.64Q22.08 0.64 16.38-2.82L16.38-2.82L16.38-2.82Q10.69-6.27 7.33-12.16L7.33-12.16L7.33-12.16Q3.97-18.05 3.97-25.02L3.97-25.02L3.97-25.02Q3.97-31.94 7.30-37.82L7.30-37.82L7.30-37.82Q10.62-43.71 16.32-47.17L16.32-47.17L16.32-47.17Q22.02-50.62 28.86-50.62L28.86-50.62L28.86-50.62Q33.47-50.62 37.25-49.28L37.25-49.28L37.25-49.28Q41.02-47.94 44.54-44.99L44.54-44.99L44.54-44.99Q45.25-44.48 45.25-43.52L45.25-43.52L45.25-43.52Q45.25-43.01 44.99-42.59L44.99-42.59L44.99-42.59Q44.74-42.18 44.29-41.98L44.29-41.98L44.29-41.98Q44.16-41.54 43.71-41.25L43.71-41.25L43.71-41.25Q43.26-40.96 42.75-40.96L42.75-40.96L42.75-40.96Q41.86-40.96 41.15-41.60L41.15-41.60L41.15-41.60Q38.66-43.84 35.71-44.86L35.71-44.86L35.71-44.86Q32.77-45.89 28.86-45.89L28.86-45.89L28.86-45.89Q23.49-45.89 18.88-43.04L18.88-43.04L18.88-43.04Q14.27-40.19 11.55-35.39L11.55-35.39L11.55-35.39Q8.83-30.59 8.83-25.02L8.83-25.02L8.83-25.02Q8.83-19.33 11.52-14.53L11.52-14.53L11.52-14.53Q14.21-9.73 18.82-6.91L18.82-6.91L18.82-6.91Q23.42-4.10 28.86-4.10L28.86-4.10L28.86-4.10Q35.07-4.10 40.38-7.74L40.38-7.74L40.38-20.54L30.40-20.54L30.40-20.54Q29.31-20.54 28.61-21.18L28.61-21.18L28.61-21.18Q27.90-21.82 27.90-22.78L27.90-22.78L27.90-22.78Q27.90-23.74 28.61-24.35L28.61-24.35L28.61-24.35Q29.31-24.96 30.40-24.96L30.40-24.96L42.75-24.96ZM71.04-35.33L71.04-35.33Q76.03-35.33 80.10-32.99L80.10-32.99L80.10-32.99Q84.16-30.66 86.50-26.56L86.50-26.56L86.50-26.56Q88.83-22.46 88.83-17.47L88.83-17.47L88.83-2.43L88.83-2.43Q88.83-1.41 88.13-0.70L88.13-0.70L88.13-0.70Q87.42 0 86.34 0L86.34 0L86.34 0Q85.25 0 84.54-0.67L84.54-0.67L84.54-0.67Q83.84-1.34 83.84-2.43L83.84-2.43L83.84-6.27L83.84-6.27Q81.60-3.20 78.14-1.44L78.14-1.44L78.14-1.44Q74.69 0.32 70.53 0.32L70.53 0.32L70.53 0.32Q65.66 0.32 61.73-2.02L61.73-2.02L61.73-2.02Q57.79-4.35 55.52-8.42L55.52-8.42L55.52-8.42Q53.25-12.48 53.25-17.47L53.25-17.47L53.25-17.47Q53.25-22.46 55.58-26.56L55.58-26.56L55.58-26.56Q57.92-30.66 61.98-32.99L61.98-32.99L61.98-32.99Q66.05-35.33 71.04-35.33L71.04-35.33ZM71.04-4.16L71.04-4.16Q74.69-4.16 77.63-5.89L77.63-5.89L77.63-5.89Q80.58-7.62 82.27-10.66L82.27-10.66L82.27-10.66Q83.97-13.70 83.97-17.47L83.97-17.47L83.97-17.47Q83.97-21.25 82.27-24.29L82.27-24.29L82.27-24.29Q80.58-27.33 77.63-29.09L77.63-29.09L77.63-29.09Q74.69-30.85 71.04-30.85L71.04-30.85L71.04-30.85Q67.39-30.85 64.42-29.09L64.42-29.09L64.42-29.09Q61.44-27.33 59.74-24.29L59.74-24.29L59.74-24.29Q58.05-21.25 58.05-17.47L58.05-17.47L58.05-17.47Q58.05-13.70 59.74-10.66L59.74-10.66L59.74-10.66Q61.44-7.62 64.42-5.89L64.42-5.89L64.42-5.89Q67.39-4.16 71.04-4.16L71.04-4.16ZM114.24-35.39L114.24-35.39Q116.93-35.39 118.50-34.69L118.50-34.69L118.50-34.69Q120.06-33.98 120.06-32.70L120.06-32.70L120.06-32.70Q120.06-32.32 120-32.13L120-32.13L120-32.13Q119.74-31.23 119.20-30.91L119.20-30.91L119.20-30.91Q118.66-30.59 117.70-30.59L117.70-30.59L117.70-30.59Q117.12-30.59 115.71-30.72L115.71-30.72L115.71-30.72Q115.20-30.78 114.18-30.78L114.18-30.78L114.18-30.78Q109.38-30.78 106.34-28.22L106.34-28.22L106.34-28.22Q103.30-25.66 103.30-21.57L103.30-21.57L103.30-2.43L103.30-2.43Q103.30-1.28 102.66-0.64L102.66-0.64L102.66-0.64Q102.02 0 100.86 0L100.86 0L100.86 0Q99.71 0 99.07-0.64L99.07-0.64L99.07-0.64Q98.43-1.28 98.43-2.43L98.43-2.43L98.43-32.58L98.43-32.58Q98.43-33.73 99.07-34.37L99.07-34.37L99.07-34.37Q99.71-35.01 100.86-35.01L100.86-35.01L100.86-35.01Q102.02-35.01 102.66-34.37L102.66-34.37L102.66-34.37Q103.30-33.73 103.30-32.58L103.30-32.58L103.30-29.76L103.30-29.76Q105.15-32.45 108.03-33.92L108.03-33.92L108.03-33.92Q110.91-35.39 114.24-35.39L114.24-35.39ZM143.68-35.33L143.68-35.33Q148.67-35.33 152.74-32.99L152.74-32.99L152.74-32.99Q156.80-30.66 159.14-26.56L159.14-26.56L159.14-26.56Q161.47-22.46 161.47-17.47L161.47-17.47L161.47-2.43L161.47-2.43Q161.47-1.41 160.77-0.70L160.77-0.70L160.77-0.70Q160.06 0 158.98 0L158.98 0L158.98 0Q157.89 0 157.18-0.67L157.18-0.67L157.18-0.67Q156.48-1.34 156.48-2.43L156.48-2.43L156.48-6.27L156.48-6.27Q154.24-3.20 150.78-1.44L150.78-1.44L150.78-1.44Q147.33 0.32 143.17 0.32L143.17 0.32L143.17 0.32Q138.30 0.32 134.37-2.02L134.37-2.02L134.37-2.02Q130.43-4.35 128.16-8.42L128.16-8.42L128.16-8.42Q125.89-12.48 125.89-17.47L125.89-17.47L125.89-17.47Q125.89-22.46 128.22-26.56L128.22-26.56L128.22-26.56Q130.56-30.66 134.62-32.99L134.62-32.99L134.62-32.99Q138.69-35.33 143.68-35.33L143.68-35.33ZM143.68-4.16L143.68-4.16Q147.33-4.16 150.27-5.89L150.27-5.89L150.27-5.89Q153.22-7.62 154.91-10.66L154.91-10.66L154.91-10.66Q156.61-13.70 156.61-17.47L156.61-17.47L156.61-17.47Q156.61-21.25 154.91-24.29L154.91-24.29L154.91-24.29Q153.22-27.33 150.27-29.09L150.27-29.09L150.27-29.09Q147.33-30.85 143.68-30.85L143.68-30.85L143.68-30.85Q140.03-30.85 137.06-29.09L137.06-29.09L137.06-29.09Q134.08-27.33 132.38-24.29L132.38-24.29L132.38-24.29Q130.69-21.25 130.69-17.47L130.69-17.47L130.69-17.47Q130.69-13.70 132.38-10.66L132.38-10.66L132.38-10.66Q134.08-7.62 137.06-5.89L137.06-5.89L137.06-5.89Q140.03-4.16 143.68-4.16L143.68-4.16ZM187.01-35.33L187.01-35.33Q192.13-35.33 196.16-33.06L196.16-33.06L196.16-33.06Q200.19-30.78 202.50-26.72L202.50-26.72L202.50-26.72Q204.80-22.66 204.80-17.47L204.80-17.47L204.80-4.42L204.80-4.42Q204.80 0.70 202.53 4.86L202.53 4.86L202.53 4.86Q200.26 9.02 196.22 11.42L196.22 11.42L196.22 11.42Q192.19 13.82 187.14 13.82L187.14 13.82L187.14 13.82Q182.21 13.82 178.37 11.97L178.37 11.97L178.37 11.97Q174.53 10.11 171.90 6.78L171.90 6.78L171.90 6.78Q171.33 6.14 171.33 5.31L171.33 5.31L171.33 5.31Q171.33 4.35 172.22 3.65L172.22 3.65L172.22 3.65Q172.86 3.20 173.63 3.20L173.63 3.20L173.63 3.20Q174.21 3.20 174.78 3.49L174.78 3.49L174.78 3.49Q175.36 3.78 175.68 4.22L175.68 4.22L175.68 4.22Q177.60 6.66 180.54 8L180.54 8L180.54 8Q183.49 9.34 187.20 9.34L187.20 9.34L187.20 9.34Q190.78 9.34 193.70 7.58L193.70 7.58L193.70 7.58Q196.61 5.82 198.27 2.66L198.27 2.66L198.27 2.66Q199.94-0.51 199.94-4.61L199.94-4.61L199.94-7.49L199.94-7.49Q198.02-3.84 194.50-1.76L194.50-1.76L194.50-1.76Q190.98 0.32 186.50 0.32L186.50 0.32L186.50 0.32Q181.50 0.32 177.57-1.95L177.57-1.95L177.57-1.95Q173.63-4.22 171.42-8.29L171.42-8.29L171.42-8.29Q169.22-12.35 169.22-17.47L169.22-17.47L169.22-17.47Q169.22-22.66 171.52-26.72L171.52-26.72L171.52-26.72Q173.82-30.78 177.89-33.06L177.89-33.06L177.89-33.06Q181.95-35.33 187.01-35.33L187.01-35.33ZM187.01-4.16L187.01-4.16Q190.72-4.16 193.66-5.86L193.66-5.86L193.66-5.86Q196.61-7.55 198.27-10.59L198.27-10.59L198.27-10.59Q199.94-13.63 199.94-17.47L199.94-17.47L199.94-17.47Q199.94-21.31 198.27-24.35L198.27-24.35L198.27-24.35Q196.61-27.39 193.66-29.12L193.66-29.12L193.66-29.12Q190.72-30.85 187.01-30.85L187.01-30.85L187.01-30.85Q183.23-30.85 180.29-29.12L180.29-29.12L180.29-29.12Q177.34-27.39 175.68-24.35L175.68-24.35L175.68-24.35Q174.02-21.31 174.02-17.47L174.02-17.47L174.02-17.47Q174.02-13.63 175.68-10.59L175.68-10.59L175.68-10.59Q177.34-7.55 180.29-5.86L180.29-5.86L180.29-5.86Q183.23-4.16 187.01-4.16L187.01-4.16ZM229.31-35.33L229.31-35.33Q234.05-35.33 237.70-33.12L237.70-33.12L237.70-33.12Q241.34-30.91 243.36-27.01L243.36-27.01L243.36-27.01Q245.38-23.10 245.38-18.11L245.38-18.11L245.38-18.11Q245.38-17.09 244.74-16.48L244.74-16.48L244.74-16.48Q244.10-15.87 243.07-15.87L243.07-15.87L217.22-15.87L217.22-15.87Q217.73-10.62 221.31-7.36L221.31-7.36L221.31-7.36Q224.90-4.10 230.27-4.10L230.27-4.10L230.27-4.10Q232.58-4.10 234.91-4.90L234.91-4.90L234.91-4.90Q237.25-5.70 238.66-6.91L238.66-6.91L238.66-6.91Q239.49-7.55 240.38-7.55L240.38-7.55L240.38-7.55Q241.09-7.55 241.79-7.04L241.79-7.04L241.79-7.04Q242.62-6.27 242.62-5.31L242.62-5.31L242.62-5.31Q242.62-4.48 241.92-3.84L241.92-3.84L241.92-3.84Q239.81-2.05 236.54-0.86L236.54-0.86L236.54-0.86Q233.28 0.32 230.27 0.32L230.27 0.32L230.27 0.32Q225.15 0.32 221.12-1.95L221.12-1.95L221.12-1.95Q217.09-4.22 214.82-8.29L214.82-8.29L214.82-8.29Q212.54-12.35 212.54-17.47L212.54-17.47L212.54-17.47Q212.54-22.66 214.69-26.72L214.69-26.72L214.69-26.72Q216.83-30.78 220.64-33.06L220.64-33.06L220.64-33.06Q224.45-35.33 229.31-35.33L229.31-35.33ZM229.31-30.91L229.31-30.91Q224.45-30.91 221.25-27.90L221.25-27.90L221.25-27.90Q218.05-24.90 217.34-19.97L217.34-19.97L240.77-19.97L240.77-19.97Q240.26-24.90 237.18-27.90L237.18-27.90L237.18-27.90Q234.11-30.91 229.31-30.91L229.31-30.91ZM288.45-50.62L288.45-50.62Q293.50-50.62 297.34-48.38L297.34-48.38L297.34-48.38Q301.18-46.14 303.36-42.56L303.36-42.56L303.36-42.56Q303.81-41.86 303.81-41.02L303.81-41.02L303.81-41.02Q303.81-39.81 302.66-39.10L302.66-39.10L302.66-39.10Q302.14-38.85 301.50-38.85L301.50-38.85L301.50-38.85Q300.80-38.85 300.19-39.20L300.19-39.20L300.19-39.20Q299.58-39.55 299.20-40.19L299.20-40.19L299.20-40.19Q295.62-45.82 288.38-45.89L288.38-45.89L288.38-45.89Q283.20-45.89 280.19-43.71L280.19-43.71L280.19-43.71Q277.18-41.54 277.18-37.50L277.18-37.50L277.18-37.50Q277.18-30.02 289.28-28.42L289.28-28.42L289.28-28.42Q297.22-27.26 301.12-23.55L301.12-23.55L301.12-23.55Q305.02-19.84 305.02-13.76L305.02-13.76L305.02-13.76Q305.02-9.28 302.85-6.02L302.85-6.02L302.85-6.02Q300.67-2.75 296.90-1.06L296.90-1.06L296.90-1.06Q293.12 0.64 288.45 0.64L288.45 0.64L288.45 0.64Q282.37 0.64 277.66-1.95L277.66-1.95L277.66-1.95Q272.96-4.54 270.91-8.96L270.91-8.96L270.91-8.96Q270.66-9.41 270.66-9.98L270.66-9.98L270.66-9.98Q270.66-10.88 271.33-11.49L271.33-11.49L271.33-11.49Q272-12.10 273.15-12.10L273.15-12.10L273.15-12.10Q273.92-12.10 274.59-11.68L274.59-11.68L274.59-11.68Q275.26-11.26 275.58-10.50L275.58-10.50L275.58-10.50Q277.06-7.62 280.48-5.86L280.48-5.86L280.48-5.86Q283.90-4.10 288.45-4.10L288.45-4.10L288.45-4.10Q293.70-4.10 296.90-6.62L296.90-6.62L296.90-6.62Q300.10-9.15 300.10-13.70L300.10-13.70L300.10-13.70Q300.10-17.73 297.12-20.48L297.12-20.48L297.12-20.48Q294.14-23.23 288.19-24L288.19-24L288.19-24Q280.77-24.90 276.51-28.64L276.51-28.64L276.51-28.64Q272.26-32.38 272.26-37.82L272.26-37.82L272.26-37.82Q272.26-41.66 274.34-44.58L274.34-44.58L274.34-44.58Q276.42-47.49 280.10-49.06L280.10-49.06L280.10-49.06Q283.78-50.62 288.45-50.62L288.45-50.62ZM330.75-35.33L330.75-35.33Q335.74-35.33 339.81-32.99L339.81-32.99L339.81-32.99Q343.87-30.66 346.21-26.56L346.21-26.56L346.21-26.56Q348.54-22.46 348.54-17.47L348.54-17.47L348.54-2.43L348.54-2.43Q348.54-1.41 347.84-0.70L347.84-0.70L347.84-0.70Q347.14 0 346.05 0L346.05 0L346.05 0Q344.96 0 344.26-0.67L344.26-0.67L344.26-0.67Q343.55-1.34 343.55-2.43L343.55-2.43L343.55-6.27L343.55-6.27Q341.31-3.20 337.86-1.44L337.86-1.44L337.86-1.44Q334.40 0.32 330.24 0.32L330.24 0.32L330.24 0.32Q325.38 0.32 321.44-2.02L321.44-2.02L321.44-2.02Q317.50-4.35 315.23-8.42L315.23-8.42L315.23-8.42Q312.96-12.48 312.96-17.47L312.96-17.47L312.96-17.47Q312.96-22.46 315.30-26.56L315.30-26.56L315.30-26.56Q317.63-30.66 321.70-32.99L321.70-32.99L321.70-32.99Q325.76-35.33 330.75-35.33L330.75-35.33ZM330.75-4.16L330.75-4.16Q334.40-4.16 337.34-5.89L337.34-5.89L337.34-5.89Q340.29-7.62 341.98-10.66L341.98-10.66L341.98-10.66Q343.68-13.70 343.68-17.47L343.68-17.47L343.68-17.47Q343.68-21.25 341.98-24.29L341.98-24.29L341.98-24.29Q340.29-27.33 337.34-29.09L337.34-29.09L337.34-29.09Q334.40-30.85 330.75-30.85L330.75-30.85L330.75-30.85Q327.10-30.85 324.13-29.09L324.13-29.09L324.13-29.09Q321.15-27.33 319.46-24.29L319.46-24.29L319.46-24.29Q317.76-21.25 317.76-17.47L317.76-17.47L317.76-17.47Q317.76-13.70 319.46-10.66L319.46-10.66L319.46-10.66Q321.15-7.62 324.13-5.89L324.13-5.89L324.13-5.89Q327.10-4.16 330.75-4.16L330.75-4.16ZM356.86-47.55L356.86-47.55Q356.86-48.64 357.57-49.31L357.57-49.31L357.57-49.31Q358.27-49.98 359.30-49.98L359.30-49.98L359.30-49.98Q360.38-49.98 361.06-49.31L361.06-49.31L361.06-49.31Q361.73-48.64 361.73-47.55L361.73-47.55L361.73-11.07L361.73-11.07Q361.73-8.32 362.85-6.59L362.85-6.59L362.85-6.59Q363.97-4.86 365.70-4.86L365.70-4.86L367.30-4.86L367.30-4.86Q368.26-4.86 368.83-4.19L368.83-4.19L368.83-4.19Q369.41-3.52 369.41-2.43L369.41-2.43L369.41-2.43Q369.41-1.34 368.61-0.67L368.61-0.67L368.61-0.67Q367.81 0 366.53 0L366.53 0L365.70 0L365.70 0Q361.79 0 359.33-3.10L359.33-3.10L359.33-3.10Q356.86-6.21 356.86-11.07L356.86-11.07L356.86-47.55ZM391.10-35.33L391.10-35.33Q395.84-35.33 399.49-33.12L399.49-33.12L399.49-33.12Q403.14-30.91 405.15-27.01L405.15-27.01L405.15-27.01Q407.17-23.10 407.17-18.11L407.17-18.11L407.17-18.11Q407.17-17.09 406.53-16.48L406.53-16.48L406.53-16.48Q405.89-15.87 404.86-15.87L404.86-15.87L379.01-15.87L379.01-15.87Q379.52-10.62 383.10-7.36L383.10-7.36L383.10-7.36Q386.69-4.10 392.06-4.10L392.06-4.10L392.06-4.10Q394.37-4.10 396.70-4.90L396.70-4.90L396.70-4.90Q399.04-5.70 400.45-6.91L400.45-6.91L400.45-6.91Q401.28-7.55 402.18-7.55L402.18-7.55L402.18-7.55Q402.88-7.55 403.58-7.04L403.58-7.04L403.58-7.04Q404.42-6.27 404.42-5.31L404.42-5.31L404.42-5.31Q404.42-4.48 403.71-3.84L403.71-3.84L403.71-3.84Q401.60-2.05 398.34-0.86L398.34-0.86L398.34-0.86Q395.07 0.32 392.06 0.32L392.06 0.32L392.06 0.32Q386.94 0.32 382.91-1.95L382.91-1.95L382.91-1.95Q378.88-4.22 376.61-8.29L376.61-8.29L376.61-8.29Q374.34-12.35 374.34-17.47L374.34-17.47L374.34-17.47Q374.34-22.66 376.48-26.72L376.48-26.72L376.48-26.72Q378.62-30.78 382.43-33.06L382.43-33.06L382.43-33.06Q386.24-35.33 391.10-35.33L391.10-35.33ZM391.10-30.91L391.10-30.91Q386.24-30.91 383.04-27.90L383.04-27.90L383.04-27.90Q379.84-24.90 379.14-19.97L379.14-19.97L402.56-19.97L402.56-19.97Q402.05-24.90 398.98-27.90L398.98-27.90L398.98-27.90Q395.90-30.91 391.10-30.91L391.10-30.91ZM427.58-35.33L427.58-35.33Q431.81-35.33 434.94-33.89L434.94-33.89L434.94-33.89Q438.08-32.45 440-29.89L440-29.89L440-29.89Q440.51-29.06 440.51-28.42L440.51-28.42L440.51-28.42Q440.51-27.33 439.49-26.69L439.49-26.69L439.49-26.69Q439.04-26.37 438.27-26.37L438.27-26.37L438.27-26.37Q436.93-26.37 436.03-27.33L436.03-27.33L436.03-27.33Q432.90-30.91 427.46-30.91L427.46-30.91L427.46-30.91Q423.94-30.91 421.82-29.47L421.82-29.47L421.82-29.47Q419.71-28.03 419.71-25.86L419.71-25.86L419.71-25.86Q419.71-23.55 421.70-22.18L421.70-22.18L421.70-22.18Q423.68-20.80 428.74-19.97L428.74-19.97L428.74-19.97Q435.58-18.82 438.53-16.22L438.53-16.22L438.53-16.22Q441.47-13.63 441.47-9.79L441.47-9.79L441.47-9.79Q441.47-6.85 439.71-4.54L439.71-4.54L439.71-4.54Q437.95-2.24 434.82-0.96L434.82-0.96L434.82-0.96Q431.68 0.32 427.71 0.32L427.71 0.32L427.71 0.32Q423.74 0.32 420.10-1.02L420.10-1.02L420.10-1.02Q416.45-2.37 414.21-4.80L414.21-4.80L414.21-4.80Q413.57-5.57 413.57-6.27L413.57-6.27L413.57-6.27Q413.57-7.36 414.59-8.19L414.59-8.19L414.59-8.19Q415.36-8.77 416.19-8.77L416.19-8.77L416.19-8.77Q417.28-8.77 418.05-7.87L418.05-7.87L418.05-7.87Q419.58-6.08 422.11-5.12L422.11-5.12L422.11-5.12Q424.64-4.16 427.71-4.16L427.71-4.16L427.71-4.16Q432.19-4.16 434.43-5.70L434.43-5.70L434.43-5.70Q436.67-7.23 436.74-9.73L436.74-9.73L436.74-9.73Q436.74-12.03 434.50-13.57L434.50-13.57L434.50-13.57Q432.26-15.10 427.39-15.87L427.39-15.87L427.39-15.87Q421.12-16.90 418.02-19.42L418.02-19.42L418.02-19.42Q414.91-21.95 414.91-25.54L414.91-25.54L414.91-25.54Q414.91-30.21 418.53-32.77L418.53-32.77L418.53-32.77Q422.14-35.33 427.58-35.33L427.58-35.33Z" fill="url(#editing-gradient-gradient)"></path></g></g><style>text {
  font-size: 64px;
  font-family: Arial Black;
  dominant-baseline: central;
  text-anchor: middle;
}</style></svg>